HIERARCHY
ROOT Root
{
  OFFSET 0.0 0.0 0.0
  CHANNELS 6 Xposition Yposition Zposition Zrotation Yrotation Xrotation
  JOINT Hips
  {
    OFFSET 0.0 100.0 0.0
    CHANNELS 6 Xposition Yposition Zposition Zrotation Yrotation Xrotation
    JOINT Spine1
    {
      OFFSET -0.013727 5.003763 -0.053727
      CHANNELS 3 Zrotation Yrotation Xrotation
      JOINT Spine2
      {
        OFFSET -0.0 7.125301 -0.029825
        CHANNELS 3 Zrotation Yrotation Xrotation
        JOINT Chest
        {
          OFFSET -1e-06 7.550063 -0.815971
          CHANNELS 3 Zrotation Yrotation Xrotation
          JOINT Neck1
          {
            OFFSET -0.181677 26.311295 -0.553348
            CHANNELS 3 Zrotation Yrotation Xrotation
            JOINT Neck2
            {
              OFFSET -3e-06 7.709397 2.302585
              CHANNELS 3 Zrotation Yrotation Xrotation
              JOINT Head
              {
                OFFSET -5e-06 6.128916 1.953709
                CHANNELS 3 Zrotation Yrotation Xrotation
                JOINT HeadEnd
                {
                  OFFSET 0.003598 16.065403 -1.835379
                  CHANNELS 3 Zrotation Yrotation Xrotation
                }
                JOINT Jaw
                {
                  OFFSET 0.002637 0.475592 3.094941
                  CHANNELS 3 Zrotation Yrotation Xrotation
                }
                JOINT LeftEye
                {
                  OFFSET 3.206381 5.380205 7.586883
                  CHANNELS 3 Zrotation Yrotation Xrotation
                }
                JOINT RightEye
                {
                  OFFSET -3.22244 5.361869 7.558234
                  CHANNELS 3 Zrotation Yrotation Xrotation
                }
              }
            }
          }
          JOINT LeftShoulder
          {
            OFFSET 1.621652 23.237164 5.113413
            CHANNELS 3 Zrotation Yrotation Xrotation
            JOINT LeftArm
            {
              OFFSET 14.919846 2e-06 -5.502326
              CHANNELS 3 Zrotation Yrotation Xrotation
              JOINT LeftForeArm
              {
                OFFSET 28.739307 0.0 -0.002588
                CHANNELS 3 Zrotation Yrotation Xrotation
                JOINT LeftHand
                {
                  OFFSET 27.093981 -1e-06 0.002609
                  CHANNELS 3 Zrotation Yrotation Xrotation
                  JOINT LeftHandThumb1
                  {
                    OFFSET 2.276482 -1.392045 3.191413
                    CHANNELS 3 Zrotation Yrotation Xrotation
                    JOINT LeftHandThumb2
                    {
                      OFFSET 4.012836 -1.828127 1.641654
                      CHANNELS 3 Zrotation Yrotation Xrotation
                      JOINT LeftHandThumb3
                      {
                        OFFSET 2.798515 0.0 -3e-06
                        CHANNELS 3 Zrotation Yrotation Xrotation
                        JOINT LeftHandThumbEnd
                        {
                          OFFSET 3.180793 -4e-06 4e-06
                          CHANNELS 3 Zrotation Yrotation Xrotation
                        }
                      }
                    }
                  }
                  JOINT LeftHandIndex1
                  {
                    OFFSET 3.247555 -0.531998 2.296169
                    CHANNELS 3 Zrotation Yrotation Xrotation
                    JOINT LeftHandIndex2
                    {
                      OFFSET 6.364578 0.01206 0.1786
                      CHANNELS 3 Zrotation Yrotation Xrotation
                      JOINT LeftHandIndex3
                      {
                        OFFSET 3.662364 0.0 0.0
                        CHANNELS 3 Zrotation Yrotation Xrotation
                        JOINT LeftHandIndex4
                        {
                          OFFSET 2.329242 4e-06 4e-06
                          CHANNELS 3 Zrotation Yrotation Xrotation
                          JOINT LeftHandIndexEnd
                          {
                            OFFSET 2.759615 -0.180537 -0.113024
                            CHANNELS 3 Zrotation Yrotation Xrotation
                          }
                        }
                      }
                    }
                  }
                  JOINT LeftHandMiddle1
                  {
                    OFFSET 3.163495 0.240981 1.000332
                    CHANNELS 3 Zrotation Yrotation Xrotation
                    JOINT LeftHandMiddle2
                    {
                      OFFSET 6.19078 -0.259278 -1.002548
                      CHANNELS 3 Zrotation Yrotation Xrotation
                      JOINT LeftHandMiddle3
                      {
                        OFFSET 4.35652 -4e-06 -1e-06
                        CHANNELS 3 Zrotation Yrotation Xrotation
                        JOINT LeftHandMiddle4
                        {
                          OFFSET 2.996877 -8e-06 0.0
                          CHANNELS 3 Zrotation Yrotation Xrotation
                          JOINT LeftHandMiddleEnd
                          {
                            OFFSET 2.304287 -0.294569 -0.031741
                            CHANNELS 3 Zrotation Yrotation Xrotation
                          }
                        }
                      }
                    }
                  }
                  JOINT LeftHandRing1
                  {
                    OFFSET 2.882643 -0.053652 -0.322543
                    CHANNELS 3 Zrotation Yrotation Xrotation
                    JOINT LeftHandRing2
                    {
                      OFFSET 5.854541 -0.486202 -1.373841
                      CHANNELS 3 Zrotation Yrotation Xrotation
                      JOINT LeftHandRing3
                      {
                        OFFSET 4.350578 0.0 3e-06
                        CHANNELS 3 Zrotation Yrotation Xrotation
                        JOINT LeftHandRing4
                        {
                          OFFSET 2.651321 7e-06 2e-06
                          CHANNELS 3 Zrotation Yrotation Xrotation
                          JOINT LeftHandRingEnd
                          {
                            OFFSET 1.936105 0.077687 -7.1e-05
                            CHANNELS 3 Zrotation Yrotation Xrotation
                          }
                        }
                      }
                    }
                  }
                  JOINT LeftHandPinky1
                  {
                    OFFSET 2.8655 -0.310005 -1.600378
                    CHANNELS 3 Zrotation Yrotation Xrotation
                    JOINT LeftHandPinky2
                    {
                      OFFSET 5.087849 -1.331141 -1.77123
                      CHANNELS 3 Zrotation Yrotation Xrotation
                      JOINT LeftHandPinky3
                      {
                        OFFSET 3.070974 4e-06 0.0
                        CHANNELS 3 Zrotation Yrotation Xrotation
                        JOINT LeftHandPinky4
                        {
                          OFFSET 1.549672 0.0 1e-06
                          CHANNELS 3 Zrotation Yrotation Xrotation
                          JOINT LeftHandPinkyEnd
                          {
                            OFFSET 1.944893 -0.157802 0.057219
                            CHANNELS 3 Zrotation Yrotation Xrotation
                          }
                        }
                      }
                    }
                  }
                }
              }
            }
          }
          JOINT RightShoulder
          {
            OFFSET -1.380118 23.180309 5.214158
            CHANNELS 3 Zrotation Yrotation Xrotation
            JOINT RightArm
            {
              OFFSET -15.037196 1.2e-05 -5.545604
              CHANNELS 3 Zrotation Yrotation Xrotation
              JOINT RightForeArm
              {
                OFFSET -28.736639 2e-06 -0.002597
                CHANNELS 3 Zrotation Yrotation Xrotation
                JOINT RightHand
                {
                  OFFSET -27.133619 -0.0 0.002613
                  CHANNELS 3 Zrotation Yrotation Xrotation
                  JOINT RightHandThumb1
                  {
                    OFFSET -2.274032 -1.383988 3.163127
                    CHANNELS 3 Zrotation Yrotation Xrotation
                    JOINT RightHandThumb2
                    {
                      OFFSET -4.011429 -1.827466 1.640914
                      CHANNELS 3 Zrotation Yrotation Xrotation
                      JOINT RightHandThumb3
                      {
                        OFFSET -2.794935 -4e-06 -3e-06
                        CHANNELS 3 Zrotation Yrotation Xrotation
                        JOINT RightHandThumbEnd
                        {
                          OFFSET -3.183852 4e-06 1e-06
                          CHANNELS 3 Zrotation Yrotation Xrotation
                        }
                      }
                    }
                  }
                  JOINT RightHandIndex1
                  {
                    OFFSET -3.253266 -0.520057 2.282866
                    CHANNELS 3 Zrotation Yrotation Xrotation
                    JOINT RightHandIndex2
                    {
                      OFFSET -6.341917 0.012471 0.178266
                      CHANNELS 3 Zrotation Yrotation Xrotation
                      JOINT RightHandIndex3
                      {
                        OFFSET -3.654871 -8e-06 -0.0
                        CHANNELS 3 Zrotation Yrotation Xrotation
                        JOINT RightHandIndex4
                        {
                          OFFSET -2.327586 0.0 1e-06
                          CHANNELS 3 Zrotation Yrotation Xrotation
                          JOINT RightHandIndexEnd
                          {
                            OFFSET -2.76179 -0.180656 -0.113078
                            CHANNELS 3 Zrotation Yrotation Xrotation
                          }
                        }
                      }
                    }
                  }
                  JOINT RightHandMiddle1
                  {
                    OFFSET -3.168106 0.246593 1.00103
                    CHANNELS 3 Zrotation Yrotation Xrotation
                    JOINT RightHandMiddle2
                    {
                      OFFSET -6.180828 -0.258836 -1.000895
                      CHANNELS 3 Zrotation Yrotation Xrotation
                      JOINT RightHandMiddle3
                      {
                        OFFSET -4.348901 0.0 -0.0
                        CHANNELS 3 Zrotation Yrotation Xrotation
                        JOINT RightHandMiddle4
                        {
                          OFFSET -3.00024 -4e-06 -2e-06
                          CHANNELS 3 Zrotation Yrotation Xrotation
                          JOINT RightHandMiddleEnd
                          {
                            OFFSET -2.30252 -0.29437 -0.031706
                            CHANNELS 3 Zrotation Yrotation Xrotation
                          }
                        }
                      }
                    }
                  }
                  JOINT RightHandRing1
                  {
                    OFFSET -2.88569 -0.067952 -0.308858
                    CHANNELS 3 Zrotation Yrotation Xrotation
                    JOINT RightHandRing2
                    {
                      OFFSET -5.854198 -0.48613 -1.373731
                      CHANNELS 3 Zrotation Yrotation Xrotation
                      JOINT RightHandRing3
                      {
                        OFFSET -4.33881 -4e-06 -0.0
                        CHANNELS 3 Zrotation Yrotation Xrotation
                        JOINT RightHandRing4
                        {
                          OFFSET -2.654903 -4e-06 4e-06
                          CHANNELS 3 Zrotation Yrotation Xrotation
                          JOINT RightHandRingEnd
                          {
                            OFFSET -1.933568 0.077527 -5.2e-05
                            CHANNELS 3 Zrotation Yrotation Xrotation
                          }
                        }
                      }
                    }
                  }
                  JOINT RightHandPinky1
                  {
                    OFFSET -2.866425 -0.342796 -1.584145
                    CHANNELS 3 Zrotation Yrotation Xrotation
                    JOINT RightHandPinky2
                    {
                      OFFSET -5.091371 -1.332055 -1.772385
                      CHANNELS 3 Zrotation Yrotation Xrotation
                      JOINT RightHandPinky3
                      {
                        OFFSET -3.062664 -4e-06 1e-06
                        CHANNELS 3 Zrotation Yrotation Xrotation
                        JOINT RightHandPinky4
                        {
                          OFFSET -1.546529 4e-06 -2e-06
                          CHANNELS 3 Zrotation Yrotation Xrotation
                          JOINT RightHandPinkyEnd
                          {
                            OFFSET -1.945119 -0.157718 0.057211
                            CHANNELS 3 Zrotation Yrotation Xrotation
                          }
                        }
                      }
                    }
                  }
                }
              }
            }
          }
        }
      }
    }
    JOINT LeftLeg
    {
      OFFSET 10.043214 -8.434526 2.595655
      CHANNELS 3 Zrotation Yrotation Xrotation
      JOINT LeftShin
      {
        OFFSET -1e-06 -43.221752 -0.802913
        CHANNELS 3 Zrotation Yrotation Xrotation
        JOINT LeftFoot
        {
          OFFSET 1e-06 -42.155094 -3.481523
          CHANNELS 3 Zrotation Yrotation Xrotation
          JOINT LeftToeBase
          {
            OFFSET 0.0 -5.059472 13.231529
            CHANNELS 3 Zrotation Yrotation Xrotation
            JOINT LeftToeEnd
            {
              OFFSET -0.009607 -1.647619 6.513017
              CHANNELS 3 Zrotation Yrotation Xrotation
            }
          }
        }
      }
    }
    JOINT RightLeg
    {
      OFFSET -10.047278 -8.29526 2.620317
      CHANNELS 3 Zrotation Yrotation Xrotation
      JOINT RightShin
      {
        OFFSET 1e-06 -43.362206 -0.805556
        CHANNELS 3 Zrotation Yrotation Xrotation
        JOINT RightFoot
        {
          OFFSET 2e-06 -42.117393 -3.478398
          CHANNELS 3 Zrotation Yrotation Xrotation
          JOINT RightToeBase
          {
            OFFSET -0.0 -5.079609 13.284196
            CHANNELS 3 Zrotation Yrotation Xrotation
            JOINT RightToeEnd
            {
              OFFSET 0.009532 -1.634378 6.460591
              CHANNELS 3 Zrotation Yrotation Xrotation
            }
          }
        }
      }
    }
  }
}
MOTION
Frames: 4
Frame Time: 0.03333333333333333
0.0 0.0 0.0 0.0 -0.0 0.0 0.860512 100.403595 5.731206 0.499788 0.204347 1.366702 -0.163141 0.063213 -3.70599 -0.545483 -0.20238 -6.367971 -0.644054 -1.978924 15.501253 -1.399269 3.076298 -1.518564 -0.75129 -0.114401 -3.541087 2.43992 -1.929818 -10.120163 7.7e-05 -2.2e-05 6e-06 0.019055 -0.023015 0.010499 0.768978 -3.760823 -10.599453 -0.732486 3.722832 -10.634869 -22.187281 -7.240903 16.382927 -46.119938 -8.537209 21.150644 0.087018 -34.303238 0.216525 0.730628 2.055694 -0.988945 -5.882108 9.86129 0.702591 -10.936878 -0.360577 7.156209 3e-06 8.77483 1e-06 -15.996353 18.21261 6.200098 -1.844033 2.498505 -2.507277 -10.163606 4.678945 4.62111 -20.976038 -9e-06 2e-06 -21.226301 2.451693 -3.593999 1e-06 -6e-06 -1e-06 -1.362682 2.240799 -0.746324 -21.334929 0.584904 3.008324 -13.821223 -7e-06 1e-06 -23.887184 -0.249085 -0.839479 -60.525257 2.455371 -1.076559 -0.294024 1.679688 0.833256 -14.218217 0.093212 1.300581 -34.21207 -0.287574 0.967174 -20.03323 0.964533 1.212847 1e-06 -0.0 0.0 -3.440389 0.788233 0.501655 -15.9282 -3.167314 2.999709 -6.338829 -3e-06 1e-06 -18.123457 3.64818 -4.905669 -4e-06 -0.0 -1e-06 18.580944 11.947217 16.984976 53.079456 13.000445 30.897911 -0.331115 27.699945 -0.156815 5.506578 1.99384 9.22487 2.24354 -5.255036 -3.180158 14.28289 -0.826594 6.952503 -3e-06 -12.690603 1e-06 16.137989 -17.862339 2.700011 1.665665 -1.955921 -2.878299 4.727798 -4.170586 4.993924 11.020525 4e-06 -1e-06 12.10905 -3.735714 -2.866781 1e-06 0.0 -1e-06 1.291985 -1.928549 -1.49809 14.800127 0.56747 3.865609 14.242568 -1.341735 -6.660655 19.631968 0.143927 -0.648243 50.179756 -0.741265 -6.630844 0.353028 -1.511151 -0.03194 20.222788 3.684311 2.31663 18.78727 6e-06 2e-06 10.751626 -0.479868 1.397907 -2e-06 1e-06 0.0 3.273806 0.305948 -0.58011 21.486813 11.830377 2.266133 8.162926 3e-06 -0.0 18.399076 -3.798985 -4.94057 4e-06 0.0 -2e-06 -0.2081 13.995726 -8.266822 -0.022364 0.012693 10.877979 -2.286415 4.480299 -3.522795 1.648576 -1.895537 -0.279797 0.0 0.0 2e-06 -2.29679 -13.92779 -5.801201 0.041291 -0.095228 9.946251 2.672913 7.780759 -4.904696 -1.418006 1.005094 -0.041234 0.0 0.0 -1e-06 
0.0 0.0 0.0 0.0 -0.0 0.0 0.875686 100.414505 5.692222 0.482758 0.338966 1.648327 -0.199309 0.07418 -3.50215 -0.546466 -0.193502 -6.289547 -0.677653 -2.036376 15.47916 -1.420352 3.101107 -1.493679 -0.76664 -0.243625 -3.532572 2.460256 -2.056866 -10.296479 7.7e-05 -2.3e-05 6e-06 0.016529 -0.008217 0.014316 0.76047 -3.743865 -10.585629 -0.729274 3.735628 -10.622375 -22.09597 -7.442087 16.464674 -46.121986 -8.63883 20.909973 0.004086 -34.549702 0.221439 0.441699 2.151397 -0.434648 -5.882113 9.861292 0.702591 -10.93688 -0.360573 7.156209 -1e-06 8.774831 -0.0 -16.005199 18.163645 6.184776 -1.844035 2.498507 -2.50728 -10.16361 4.67895 4.621109 -20.97604 0.0 -1e-06 -21.226307 2.451702 -3.594006 1e-06 -5e-06 -1e-06 -1.362683 2.240801 -0.746324 -21.334934 0.584914 3.008327 -13.821225 0.0 0.0 -23.887192 -0.249079 -0.839487 -60.527721 2.46171 -0.997065 -0.294025 1.679688 0.833257 -14.218223 0.093217 1.30058 -34.212082 -0.287559 0.967164 -20.033232 0.96454 1.21284 1e-06 -0.0 -1e-06 -3.440392 0.788235 0.501654 -15.928198 -3.167308 2.999707 -6.338832 -0.0 -1e-06 -18.123463 3.648187 -4.905676 -4e-06 -1e-06 -1e-06 18.511301 11.931212 16.996681 53.124264 13.156671 30.428041 -0.270052 27.661606 -0.110111 5.464149 2.313881 9.132468 2.243543 -5.255039 -3.18016 14.282903 -0.826595 6.952505 -3e-06 -12.690609 1e-06 16.133181 -17.837509 2.654854 1.665668 -1.955922 -2.8783 4.727803 -4.17059 4.993925 11.020536 3e-06 -2e-06 12.109061 -3.735717 -2.866786 1e-06 0.0 -1e-06 1.291987 -1.92855 -1.49809 14.800139 0.56747 3.865608 14.242584 -1.341737 -6.66066 19.631985 0.143927 -0.648247 50.144382 -0.726696 -6.644014 0.35303 -1.511151 -0.031938 20.222805 3.684311 2.31663 18.787289 5e-06 -3e-06 10.751639 -0.479868 1.397905 -1e-06 1e-06 -0.0 3.27381 0.305946 -0.580112 21.486832 11.83038 2.266133 8.162934 4e-06 -3e-06 18.399099 -3.798983 -4.940581 5e-06 0.0 -1e-06 -0.287778 13.6671 -8.85588 -0.036348 -0.013776 11.322676 -2.352126 4.687147 -3.533538 1.649781 -1.918883 -0.303142 0.0 0.0 2e-06 -2.208997 -13.91046 -6.133326 0.048623 -0.093576 9.962683 2.685571 7.63804 -4.876379 -1.418262 0.980892 -0.081977 0.0 0.0 -1e-06 
0.0 0.0 0.0 0.0 -0.0 0.0 0.896209 100.381615 5.61758 0.472254 0.487119 2.02349 -0.259367 0.073419 -3.217446 -0.556563 -0.195418 -6.20258 -0.69704 -2.06113 15.518528 -1.40575 3.104891 -1.497845 -0.793222 -0.349788 -3.547318 2.521804 -2.242845 -10.476262 7.7e-05 -2.3e-05 6e-06 0.015065 -0.007442 0.02015 0.753497 -3.739426 -10.588862 -0.725375 3.732742 -10.620275 -21.908186 -7.691016 16.529093 -46.063454 -8.752798 20.71755 -0.037414 -35.142509 0.205721 0.148445 2.390351 0.009582 -5.88211 9.861288 0.702588 -10.936877 -0.360574 7.156208 -0.0 8.774826 -1e-06 -16.017408 18.206758 6.201594 -1.844034 2.498506 -2.507279 -10.163605 4.678946 4.621109 -20.976036 -1e-06 1e-06 -21.226297 2.451698 -3.594002 -1e-06 -6e-06 -1e-06 -1.362681 2.240798 -0.746324 -21.334925 0.584912 3.008324 -13.821219 -1e-06 2e-06 -23.887182 -0.249077 -0.839483 -60.548233 2.508822 -1.015728 -0.294025 1.679687 0.833254 -14.218216 0.093216 1.300583 -34.212067 -0.28756 0.967169 -20.033226 0.96454 1.212842 1e-06 -0.0 -1e-06 -3.440391 0.788235 0.501656 -15.928194 -3.167308 2.999709 -6.338829 -1e-06 -1e-06 -18.123457 3.648185 -4.905674 -5e-06 1e-06 -2e-06 18.407118 11.981142 16.921843 53.121326 13.394477 30.126284 -0.267418 27.640745 -0.106456 5.32506 2.561654 8.92381 2.243541 -5.255037 -3.180158 14.282892 -0.826594 6.9525 -3e-06 -12.690603 -0.0 16.141317 -17.800219 2.623543 1.665666 -1.955921 -2.878299 4.7278 -4.170587 4.993923 11.020528 3e-06 -2e-06 12.109053 -3.735715 -2.866787 -0.0 -0.0 -1e-06 1.291986 -1.92855 -1.498091 14.800129 0.567469 3.865604 14.242576 -1.341736 -6.660659 19.631969 0.143928 -0.648246 50.068378 -0.736822 -6.664711 0.353029 -1.511151 -0.03194 20.222794 3.68431 2.31663 18.787271 4e-06 -2e-06 10.751627 -0.479867 1.397904 -1e-06 2e-06 -0.0 3.273808 0.305946 -0.58011 21.486818 11.830376 2.266134 8.162929 3e-06 -2e-06 18.399082 -3.798984 -4.940575 4e-06 0.0 -1e-06 -0.408197 13.257058 -9.659694 -0.031026 -0.025512 11.943624 -2.326025 4.910962 -3.720045 1.650278 -1.937908 -0.327293 0.0 0.0 2e-06 -2.09919 -13.929403 -6.92703 0.056223 -0.086052 10.613785 2.6703 7.45562 -5.097676 -1.416842 0.978811 -0.065583 0.0 0.0 -1e-06 
0.0 0.0 0.0 0.0 -0.0 0.0 0.893959 100.337921 5.488359 0.427697 0.607521 2.517802 -0.327863 0.063699 -2.840462 -0.557446 -0.186149 -6.093181 -0.696369 -2.062498 15.548063 -1.355103 3.089664 -1.521071 -0.834157 -0.387078 -3.579797 2.66534 -2.406955 -10.760561 7.7e-05 -2.2e-05 6e-06 0.013958 -0.01502 0.02131 0.749495 -3.74593 -10.608335 -0.723513 3.724069 -10.633797 -21.556576 -7.973942 16.575151 -46.033104 -8.889657 20.393356 -0.111226 -36.041782 0.221273 -0.027949 2.646386 0.552065 -5.882109 9.861291 0.70259 -10.936873 -0.360574 7.156205 -0.0 8.77483 -0.0 -15.991548 18.242262 6.228761 -1.844034 2.498506 -2.507279 -10.163602 4.678948 4.621109 -20.976028 -2e-06 -1e-06 -21.226297 2.451697 -3.594004 1e-06 -6e-06 1e-06 -1.362682 2.240798 -0.746322 -21.334919 0.584911 3.00832 -13.821217 -2e-06 0.0 -23.887178 -0.249081 -0.839485 -60.559669 2.530062 -1.023558 -0.294024 1.679687 0.833255 -14.218214 0.093216 1.300578 -34.212063 -0.287566 0.967164 -20.03322 0.964534 1.21284 1e-06 -1e-06 -1e-06 -3.44039 0.788234 0.501656 -15.928191 -3.16731 2.999706 -6.338828 -1e-06 -2e-06 -18.123453 3.648185 -4.905674 -4e-06 1e-06 -2e-06 18.198961 12.095226 16.83905 53.131378 13.799368 30.048735 -0.313705 27.591303 -0.131465 5.17074 2.684891 8.856252 2.243542 -5.255037 -3.180159 14.282892 -0.826594 6.952503 -2e-06 -12.690604 0.0 16.106216 -17.748161 2.638314 1.665666 -1.955921 -2.878299 4.7278 -4.170587 4.993923 11.020528 3e-06 -2e-06 12.109055 -3.735717 -2.866784 1e-06 0.0 -2e-06 1.291985 -1.928549 -1.498091 14.800129 0.567468 3.865606 14.242575 -1.341736 -6.660658 19.631969 0.143925 -0.648245 49.941986 -0.752099 -6.652865 0.353029 -1.511151 -0.031941 20.222794 3.684309 2.31663 18.787273 4e-06 -2e-06 10.751629 -0.479867 1.397905 -1e-06 2e-06 1e-06 3.273807 0.305947 -0.58011 21.486816 11.830374 2.266133 8.162928 2e-06 -2e-06 18.399084 -3.798984 -4.940576 4e-06 0.0 -2e-06 -0.508213 12.920158 -10.671366 -0.02489 -0.043533 12.650433 -2.250519 5.13238 -3.942492 1.648291 -1.944915 -0.371733 0.0 0.0 2e-06 -1.896276 -14.00637 -7.973093 0.058029 -0.085614 11.438698 2.6392 7.352592 -5.336709 -1.416053 0.979361 -0.081748 0.0 0.0 -1e-06 
